<svg id="svg" version="1.1" xmlns="http://www.w3.org/2000/svg" xmlns:xlink="http://www.w3.org/1999/xlink" width="400" height="400" viewBox="0, 0, 400,400"><g id="svgg"><path id="path0" d="M146.800 198.090 L 146.800 283.200 161.999 283.200 L 177.199 283.200 177.249 250.650 L 177.300 218.100 192.571 218.100 L 207.843 218.100 208.492 219.300 C 208.849 219.960,209.570 221.310,210.095 222.300 C 210.620 223.290,211.297 224.550,211.600 225.100 C 211.903 225.650,212.509 226.775,212.947 227.600 C 213.386 228.425,214.036 229.640,214.393 230.300 C 215.412 232.182,216.464 234.145,217.503 236.100 C 218.029 237.090,218.728 238.395,219.057 239.000 C 219.385 239.605,219.945 240.640,220.300 241.300 C 220.905 242.423,221.331 243.221,223.427 247.150 C 223.881 248.003,224.501 249.150,224.803 249.700 C 225.106 250.250,225.802 251.555,226.351 252.600 C 226.899 253.645,227.642 255.040,228.001 255.700 C 229.544 258.535,231.035 261.310,232.407 263.900 C 232.989 265.000,233.617 266.170,233.801 266.500 C 233.985 266.830,234.657 268.090,235.294 269.300 C 235.931 270.510,236.609 271.770,236.801 272.100 C 236.992 272.430,237.577 273.510,238.100 274.500 C 238.624 275.490,239.300 276.750,239.603 277.300 C 239.906 277.850,240.619 279.188,241.188 280.274 C 241.756 281.359,242.362 282.461,242.534 282.724 L 242.846 283.200 257.823 283.200 L 272.800 283.200 272.800 279.586 L 272.800 275.972 271.566 273.736 C 270.888 272.506,270.111 271.095,269.841 270.600 C 269.571 270.105,269.046 269.193,268.675 268.574 C 268.304 267.954,268.000 267.403,268.000 267.349 C 268.000 267.295,267.496 266.362,266.879 265.276 C 266.263 264.189,265.240 262.355,264.607 261.200 C 263.421 259.038,263.291 258.802,260.971 254.642 C 260.217 253.291,259.600 252.142,259.600 252.088 C 259.600 252.035,259.390 251.656,259.134 251.246 C 258.667 250.498,257.899 249.116,256.499 246.500 C 256.087 245.730,255.684 245.010,255.604 244.900 C 255.524 244.790,255.117 244.070,254.700 243.300 C 254.282 242.530,253.493 241.090,252.946 240.100 C 252.399 239.110,251.703 237.850,251.400 237.300 C 251.097 236.750,250.372 235.445,249.790 234.400 C 249.207 233.355,248.419 231.915,248.039 231.200 C 247.659 230.485,247.280 229.810,247.196 229.700 C 247.111 229.590,246.775 229.005,246.448 228.400 C 246.121 227.795,245.331 226.355,244.694 225.200 C 244.056 224.045,243.269 222.605,242.944 222.000 C 242.619 221.395,242.286 220.810,242.204 220.700 C 242.122 220.590,241.668 219.780,241.195 218.900 C 240.723 218.020,240.070 216.805,239.744 216.200 C 239.419 215.595,239.086 215.010,239.004 214.900 C 238.693 214.480,237.200 211.625,237.200 211.449 C 237.200 211.347,237.895 210.957,238.743 210.582 C 249.905 205.649,260.674 192.312,264.027 179.267 C 264.590 177.078,264.829 175.792,265.415 171.800 C 265.684 169.967,265.547 159.203,265.235 157.600 C 265.117 156.995,264.926 155.825,264.809 155.000 C 262.454 138.271,251.622 124.549,236.000 118.505 C 235.175 118.186,234.410 117.867,234.300 117.797 C 234.049 117.636,232.526 117.090,231.600 116.829 C 231.215 116.720,230.225 116.434,229.400 116.194 C 228.575 115.954,227.315 115.624,226.600 115.461 C 225.885 115.298,224.760 115.031,224.100 114.868 C 222.722 114.527,219.991 114.110,217.100 113.800 C 216.000 113.682,214.425 113.483,213.600 113.359 C 212.548 113.200,202.345 113.110,179.450 113.057 L 146.800 112.980 146.800 198.090 M208.200 139.804 C 223.043 140.794,230.776 145.830,233.997 156.600 C 234.432 158.058,234.509 158.439,235.004 161.600 C 237.103 175.014,228.860 187.522,216.100 190.284 C 211.280 191.327,211.863 191.300,194.000 191.300 L 177.300 191.300 177.245 165.900 C 177.215 151.930,177.239 140.297,177.299 140.050 L 177.408 139.600 191.454 139.612 C 199.179 139.618,206.715 139.705,208.200 139.804 " stroke="none" fill="#fcfbfb" fill-rule="evenodd"></path><path id="path1" d="M195.200 53.500 C 195.200 53.710,194.989 53.800,194.500 53.800 C 193.858 53.800,193.800 53.849,193.800 54.390 C 193.800 54.968,193.777 54.981,192.650 55.040 C 191.567 55.097,191.496 55.131,191.438 55.640 C 191.380 56.140,191.299 56.184,190.338 56.240 C 189.436 56.292,189.292 56.359,189.236 56.750 C 189.186 57.100,189.042 57.200,188.586 57.200 C 188.228 57.200,188.000 57.305,188.000 57.469 C 188.000 57.949,187.287 58.400,186.529 58.400 C 185.871 58.400,185.777 58.464,185.672 58.990 C 185.562 59.542,185.486 59.585,184.527 59.640 C 183.656 59.691,183.491 59.764,183.440 60.124 C 183.391 60.465,183.177 60.581,182.340 60.724 C 181.479 60.870,181.289 60.977,181.236 61.350 C 181.186 61.700,181.042 61.800,180.586 61.800 C 180.228 61.800,180.000 61.905,180.000 62.069 C 180.000 62.538,179.311 62.985,178.492 63.047 C 177.796 63.099,177.692 63.172,177.637 63.653 C 177.576 64.174,177.522 64.200,176.487 64.200 C 175.420 64.200,175.400 64.211,175.400 64.781 C 175.400 65.246,175.327 65.343,175.034 65.267 C 174.347 65.087,173.305 65.490,173.236 65.962 C 173.187 66.299,173.036 66.400,172.586 66.400 C 172.228 66.400,172.000 66.505,172.000 66.669 C 172.000 67.136,171.329 67.568,170.500 67.635 C 169.795 67.692,169.692 67.765,169.637 68.250 C 169.576 68.775,169.524 68.800,168.487 68.800 C 167.461 68.800,167.400 68.828,167.400 69.300 C 167.400 69.575,167.288 69.810,167.150 69.821 C 167.013 69.833,166.765 69.863,166.600 69.887 C 166.435 69.912,166.062 69.947,165.772 69.966 C 165.389 69.991,165.209 70.138,165.118 70.500 C 165.027 70.861,164.858 71.000,164.507 71.000 C 164.181 71.000,163.907 71.196,163.668 71.600 C 163.362 72.118,163.197 72.200,162.457 72.200 C 161.686 72.200,161.600 72.248,161.600 72.679 C 161.600 73.234,161.273 73.400,160.184 73.400 C 159.481 73.400,159.400 73.452,159.400 73.900 C 159.400 74.235,159.284 74.407,159.050 74.421 C 158.858 74.433,158.565 74.463,158.400 74.487 C 158.235 74.512,157.899 74.547,157.654 74.566 C 157.360 74.588,157.165 74.770,157.082 75.100 C 156.993 75.455,156.821 75.600,156.490 75.600 C 156.183 75.600,155.901 75.806,155.668 76.200 C 155.362 76.718,155.197 76.800,154.457 76.800 C 153.687 76.800,153.600 76.849,153.600 77.277 C 153.600 77.704,153.487 77.768,152.519 77.889 C 151.592 78.005,151.420 78.094,151.315 78.512 C 151.223 78.879,151.057 79.001,150.646 79.003 C 149.690 79.008,149.199 79.233,149.076 79.724 C 148.985 80.088,148.821 80.200,148.378 80.200 C 148.027 80.200,147.800 80.306,147.800 80.469 C 147.800 80.947,147.087 81.400,146.334 81.400 C 145.684 81.400,145.600 81.457,145.600 81.900 C 145.600 82.336,145.512 82.400,144.913 82.400 C 143.895 82.400,143.200 82.723,143.200 83.195 C 143.200 83.526,143.070 83.600,142.487 83.600 C 141.571 83.600,141.000 83.910,141.000 84.407 C 141.000 84.710,140.863 84.800,140.400 84.800 C 140.031 84.800,139.800 84.903,139.800 85.069 C 139.800 85.547,139.087 86.000,138.334 86.000 C 137.684 86.000,137.600 86.057,137.600 86.500 C 137.600 86.951,137.521 87.000,136.787 87.000 C 135.777 87.000,135.200 87.294,135.200 87.807 C 135.200 88.124,135.062 88.200,134.487 88.200 C 133.571 88.200,133.000 88.510,133.000 89.007 C 133.000 89.307,132.863 89.400,132.423 89.400 C 132.016 89.400,131.816 89.517,131.743 89.798 C 131.631 90.224,130.865 90.600,130.109 90.600 C 129.779 90.600,129.607 90.746,129.518 91.100 C 129.411 91.526,129.278 91.600,128.613 91.600 C 127.527 91.600,127.200 91.767,127.200 92.321 C 127.200 92.745,127.110 92.800,126.416 92.800 C 125.327 92.800,125.000 92.966,125.000 93.521 C 125.000 93.920,124.900 94.000,124.400 94.000 C 124.020 94.000,123.800 94.102,123.800 94.279 C 123.800 94.592,123.461 94.775,122.300 95.086 C 121.711 95.243,121.483 95.416,121.437 95.740 C 121.383 96.119,121.232 96.188,120.337 96.240 C 119.372 96.296,119.296 96.338,119.237 96.850 C 119.180 97.344,119.095 97.400,118.403 97.400 C 117.327 97.400,117.000 97.568,117.000 98.121 C 117.000 98.520,116.900 98.600,116.400 98.600 C 116.070 98.600,115.800 98.703,115.800 98.828 C 115.800 99.185,115.153 99.587,114.566 99.594 C 113.728 99.604,113.400 99.805,113.400 100.311 C 113.400 100.735,113.300 100.785,112.350 100.840 C 111.376 100.896,111.296 100.939,111.238 101.440 C 111.180 101.939,111.098 101.984,110.146 102.040 C 109.234 102.093,109.103 102.157,109.000 102.600 C 108.923 102.931,108.722 103.123,108.406 103.169 C 108.143 103.206,107.762 103.449,107.558 103.707 C 107.295 104.042,106.945 104.195,106.344 104.239 C 105.594 104.293,105.500 104.356,105.497 104.800 C 105.495 105.260,105.407 105.308,104.397 105.400 C 103.378 105.493,103.296 105.539,103.237 106.050 C 103.177 106.569,103.116 106.600,102.169 106.600 C 101.237 106.600,101.149 106.643,100.939 107.200 C 100.769 107.650,100.585 107.800,100.204 107.800 C 99.868 107.800,99.628 107.953,99.497 108.250 C 99.347 108.593,99.087 108.724,98.400 108.800 C 97.796 108.867,97.491 108.999,97.473 109.200 C 97.458 109.365,97.436 109.613,97.423 109.750 C 97.408 109.917,97.034 110.000,96.300 110.000 C 95.215 110.000,95.200 110.008,95.200 110.590 C 95.200 111.160,95.166 111.181,94.150 111.240 C 93.298 111.289,93.064 111.382,92.910 111.733 C 92.805 111.972,92.469 112.216,92.160 112.278 C 91.852 112.340,91.600 112.489,91.600 112.609 C 91.600 113.029,91.051 113.373,90.278 113.436 C 89.597 113.492,89.492 113.568,89.437 114.050 C 89.376 114.575,89.324 114.600,88.282 114.600 C 87.229 114.600,87.186 114.621,87.070 115.200 C 86.956 115.768,86.898 115.800,85.979 115.800 C 85.110 115.800,84.994 115.853,84.882 116.300 C 84.791 116.661,84.622 116.800,84.272 116.800 C 83.994 116.800,83.731 116.949,83.655 117.150 C 83.412 117.791,82.989 118.047,82.191 118.036 C 81.450 118.026,81.400 118.061,81.400 118.603 C 81.400 119.165,81.371 119.182,80.250 119.240 C 79.167 119.297,79.096 119.331,79.038 119.840 C 78.980 120.340,78.899 120.384,77.938 120.440 C 77.036 120.492,76.892 120.559,76.836 120.950 C 76.792 121.264,76.637 121.400,76.324 121.400 C 76.057 121.400,75.695 121.644,75.432 122.000 C 75.068 122.491,74.844 122.600,74.194 122.600 C 73.448 122.600,73.400 122.636,73.400 123.190 C 73.400 123.768,73.377 123.781,72.250 123.840 C 71.167 123.897,71.096 123.931,71.038 124.440 C 70.980 124.940,70.899 124.984,69.938 125.040 C 69.036 125.092,68.892 125.159,68.836 125.550 C 68.786 125.900,68.642 126.000,68.186 126.000 C 67.668 126.000,67.600 126.070,67.600 126.600 C 67.600 127.113,67.524 127.200,67.080 127.200 C 66.331 127.200,65.124 128.447,65.247 129.092 C 65.325 129.497,65.253 129.589,64.820 129.640 L 64.300 129.700 64.300 200.000 L 64.300 270.300 64.750 270.364 C 65.081 270.411,65.200 270.561,65.200 270.934 C 65.200 271.616,66.393 272.800,67.080 272.800 C 67.524 272.800,67.600 272.887,67.600 273.400 C 67.600 273.930,67.668 274.000,68.186 274.000 C 68.641 274.000,68.787 274.100,68.836 274.448 C 68.871 274.694,69.035 274.913,69.200 274.935 C 70.732 275.132,70.976 275.228,71.037 275.657 C 71.093 276.047,71.237 276.107,72.250 276.160 C 73.367 276.218,73.400 276.236,73.400 276.790 C 73.400 277.315,73.459 277.360,74.147 277.360 C 74.738 277.360,75.002 277.490,75.412 277.980 C 75.696 278.321,76.119 278.600,76.351 278.600 C 76.636 278.600,76.793 278.746,76.836 279.050 C 76.892 279.441,77.036 279.508,77.938 279.560 C 78.899 279.616,78.980 279.660,79.038 280.160 C 79.096 280.669,79.167 280.703,80.250 280.760 C 81.377 280.819,81.400 280.832,81.400 281.410 C 81.400 281.967,81.446 282.000,82.214 282.000 C 83.042 282.000,83.417 282.221,83.655 282.850 C 83.731 283.051,83.994 283.200,84.272 283.200 C 84.622 283.200,84.791 283.339,84.882 283.700 C 84.994 284.147,85.110 284.200,85.979 284.200 C 86.898 284.200,86.956 284.232,87.070 284.800 C 87.186 285.379,87.229 285.400,88.282 285.400 C 89.324 285.400,89.376 285.425,89.437 285.950 C 89.492 286.432,89.597 286.508,90.278 286.564 C 91.051 286.627,91.600 286.971,91.600 287.391 C 91.600 287.511,91.852 287.660,92.160 287.722 C 92.469 287.784,92.805 288.028,92.910 288.267 C 93.064 288.618,93.298 288.711,94.150 288.760 C 95.166 288.819,95.200 288.840,95.200 289.410 C 95.200 289.992,95.215 290.000,96.300 290.000 C 97.034 290.000,97.408 290.083,97.423 290.250 C 97.436 290.387,97.458 290.635,97.473 290.800 C 97.491 291.001,97.796 291.133,98.400 291.200 C 99.087 291.276,99.347 291.407,99.497 291.750 C 99.618 292.024,99.870 292.200,100.142 292.200 C 100.439 292.200,100.696 292.406,100.907 292.813 C 101.128 293.240,101.356 293.415,101.662 293.391 C 102.901 293.292,103.172 293.388,103.237 293.950 C 103.296 294.461,103.378 294.507,104.397 294.600 C 105.407 294.692,105.495 294.740,105.497 295.200 C 105.500 295.644,105.594 295.707,106.344 295.761 C 106.945 295.805,107.295 295.958,107.558 296.293 C 107.762 296.551,108.143 296.794,108.406 296.831 C 108.722 296.877,108.923 297.069,109.000 297.400 C 109.103 297.843,109.234 297.907,110.146 297.960 C 111.098 298.016,111.180 298.061,111.238 298.560 C 111.296 299.061,111.376 299.104,112.350 299.160 C 113.300 299.215,113.400 299.265,113.400 299.689 C 113.400 300.195,113.728 300.396,114.566 300.406 C 115.153 300.413,115.800 300.815,115.800 301.172 C 115.800 301.297,116.070 301.400,116.400 301.400 C 116.900 301.400,117.000 301.480,117.000 301.879 C 117.000 302.432,117.327 302.600,118.403 302.600 C 119.095 302.600,119.180 302.656,119.237 303.150 C 119.296 303.663,119.371 303.704,120.350 303.760 C 121.230 303.811,121.400 303.883,121.400 304.203 C 121.400 304.638,121.953 304.997,122.637 305.006 C 123.164 305.014,123.800 305.432,123.800 305.772 C 123.800 305.897,124.070 306.000,124.400 306.000 C 124.900 306.000,125.000 306.080,125.000 306.479 C 125.000 307.034,125.327 307.200,126.416 307.200 C 127.110 307.200,127.200 307.255,127.200 307.679 C 127.200 308.233,127.527 308.400,128.613 308.400 C 129.268 308.400,129.412 308.476,129.512 308.877 C 129.605 309.249,129.809 309.382,130.436 309.483 C 131.239 309.611,131.800 309.982,131.800 310.386 C 131.800 310.504,131.868 310.589,131.950 310.576 C 132.587 310.476,133.000 310.639,133.000 310.993 C 133.000 311.490,133.571 311.800,134.487 311.800 C 135.040 311.800,135.200 311.881,135.200 312.160 C 135.200 312.752,135.625 313.000,136.640 313.000 C 137.531 313.000,137.600 313.036,137.600 313.500 C 137.600 313.947,137.682 314.000,138.369 314.000 C 139.129 314.000,139.800 314.453,139.800 314.966 C 139.800 315.095,140.070 315.200,140.400 315.200 C 140.863 315.200,141.000 315.290,141.000 315.593 C 141.000 316.090,141.571 316.400,142.487 316.400 C 143.062 316.400,143.200 316.476,143.200 316.793 C 143.200 317.269,143.832 317.640,144.563 317.593 C 145.489 317.532,145.600 317.587,145.600 318.100 C 145.600 318.547,145.682 318.600,146.369 318.600 C 147.129 318.600,147.800 319.053,147.800 319.566 C 147.800 319.695,148.060 319.800,148.378 319.800 C 148.821 319.800,148.985 319.912,149.076 320.276 C 149.199 320.767,149.690 320.992,150.646 320.997 C 151.057 320.999,151.223 321.121,151.315 321.488 C 151.420 321.906,151.592 321.995,152.519 322.111 C 153.487 322.232,153.600 322.296,153.600 322.723 C 153.600 323.145,153.691 323.200,154.385 323.200 C 155.004 323.200,155.263 323.317,155.604 323.750 C 155.842 324.053,156.118 324.311,156.218 324.325 C 156.318 324.339,156.525 324.361,156.678 324.375 C 156.831 324.389,157.010 324.614,157.076 324.874 C 157.195 325.351,157.829 325.600,158.925 325.600 C 159.298 325.600,159.400 325.707,159.400 326.100 C 159.400 326.527,159.495 326.603,160.050 326.620 C 161.229 326.656,161.706 326.879,161.637 327.361 C 161.581 327.755,161.663 327.800,162.444 327.800 C 163.198 327.800,163.361 327.880,163.668 328.400 C 163.907 328.804,164.181 329.000,164.507 329.000 C 164.855 329.000,165.027 329.139,165.115 329.488 C 165.220 329.906,165.392 329.995,166.319 330.111 C 167.287 330.232,167.400 330.296,167.400 330.723 C 167.400 331.168,167.474 331.200,168.500 331.200 C 169.589 331.200,169.600 331.206,169.600 331.800 C 169.600 332.375,169.637 332.400,170.469 332.400 C 171.335 332.400,172.000 332.823,172.000 333.375 C 172.000 333.508,172.113 333.603,172.250 333.585 C 172.894 333.501,173.177 333.635,173.236 334.050 C 173.289 334.422,173.482 334.532,174.350 334.686 C 175.261 334.848,175.400 334.934,175.400 335.336 C 175.400 335.764,175.484 335.800,176.487 335.800 C 177.524 335.800,177.576 335.825,177.637 336.350 C 177.692 336.835,177.795 336.908,178.500 336.965 C 179.329 337.032,180.000 337.464,180.000 337.931 C 180.000 338.095,180.228 338.200,180.586 338.200 C 181.042 338.200,181.186 338.300,181.236 338.650 C 181.289 339.023,181.479 339.130,182.340 339.276 C 183.177 339.419,183.391 339.535,183.440 339.876 C 183.491 340.236,183.656 340.309,184.527 340.360 C 185.486 340.415,185.562 340.458,185.672 341.010 C 185.778 341.541,185.867 341.600,186.564 341.600 C 187.329 341.600,188.000 342.051,188.000 342.566 C 188.000 342.695,188.264 342.800,188.586 342.800 C 189.041 342.800,189.187 342.900,189.236 343.248 C 189.271 343.494,189.435 343.713,189.600 343.735 C 191.132 343.932,191.376 344.028,191.437 344.457 C 191.493 344.847,191.637 344.907,192.650 344.960 C 193.782 345.019,193.800 345.029,193.800 345.623 C 193.800 346.077,193.886 346.216,194.150 346.190 C 194.880 346.115,195.200 346.210,195.200 346.500 C 195.200 346.758,195.867 346.800,200.000 346.800 C 204.133 346.800,204.800 346.758,204.800 346.500 C 204.800 346.290,205.011 346.200,205.500 346.200 C 206.142 346.200,206.200 346.151,206.200 345.610 C 206.200 345.032,206.223 345.019,207.350 344.960 C 208.363 344.907,208.507 344.847,208.563 344.457 C 208.624 344.028,208.868 343.932,210.400 343.735 C 210.565 343.713,210.729 343.494,210.764 343.248 C 210.810 342.927,210.963 342.800,211.304 342.800 C 211.995 342.800,212.774 342.397,212.910 341.970 C 212.974 341.766,213.178 341.590,213.363 341.577 C 213.549 341.564,213.835 341.542,214.000 341.527 C 214.170 341.512,214.327 341.261,214.363 340.950 C 214.424 340.425,214.476 340.400,215.513 340.400 C 216.531 340.400,216.600 340.369,216.600 339.914 C 216.600 339.476,216.706 339.415,217.700 339.291 C 218.687 339.168,218.800 339.105,218.800 338.677 C 218.800 338.304,218.907 338.200,219.291 338.200 C 219.986 338.200,220.773 337.802,220.906 337.382 C 220.977 337.157,221.257 337.001,221.660 336.962 C 222.191 336.911,222.311 336.806,222.363 336.350 C 222.424 335.825,222.476 335.800,223.513 335.800 C 224.525 335.800,224.600 335.767,224.600 335.323 C 224.600 334.896,224.713 334.832,225.688 334.710 C 226.596 334.597,226.786 334.503,226.838 334.145 C 226.880 333.850,227.088 333.676,227.500 333.592 C 228.360 333.416,229.000 333.033,229.000 332.693 C 229.000 332.491,229.219 332.400,229.700 332.400 C 230.344 332.400,230.400 332.352,230.400 331.800 C 230.400 331.206,230.411 331.200,231.500 331.200 C 232.540 331.200,232.600 331.173,232.600 330.700 C 232.600 330.307,232.702 330.200,233.075 330.200 C 234.136 330.200,234.805 329.949,234.915 329.510 C 234.996 329.190,235.252 329.021,235.863 328.886 C 236.431 328.760,236.763 328.555,236.897 328.250 C 237.044 327.916,237.263 327.800,237.747 327.800 C 238.305 327.800,238.400 327.729,238.400 327.314 C 238.400 326.876,238.506 326.815,239.500 326.691 C 240.487 326.568,240.600 326.505,240.600 326.077 C 240.600 325.667,240.696 325.600,241.287 325.600 C 242.305 325.600,243.000 325.277,243.000 324.805 C 243.000 324.485,243.131 324.400,243.620 324.400 C 244.050 324.400,244.410 324.217,244.800 323.800 C 245.145 323.431,245.561 323.200,245.880 323.200 C 246.327 323.200,246.400 323.114,246.400 322.588 C 246.400 322.204,246.480 322.026,246.614 322.109 C 247.124 322.424,248.595 321.990,248.721 321.488 C 248.821 321.088,248.969 321.000,249.535 321.000 C 250.431 321.000,251.000 320.686,251.000 320.193 C 251.000 319.909,251.136 319.800,251.491 319.800 C 252.204 319.800,252.951 319.408,253.064 318.976 C 253.134 318.710,253.344 318.600,253.781 318.600 C 254.308 318.600,254.400 318.526,254.400 318.100 C 254.400 317.649,254.479 317.600,255.213 317.600 C 256.223 317.600,256.800 317.306,256.800 316.793 C 256.800 316.463,256.938 316.400,257.660 316.400 C 258.581 316.400,259.000 316.138,259.000 315.560 C 259.000 315.312,259.151 315.200,259.487 315.200 C 260.258 315.200,260.954 314.859,261.096 314.411 C 261.189 314.119,261.397 314.000,261.813 314.000 C 262.306 314.000,262.400 313.920,262.400 313.500 C 262.400 313.042,262.474 313.000,263.284 313.000 C 264.475 313.000,264.800 312.845,264.800 312.279 C 264.800 311.855,264.890 311.800,265.584 311.800 C 266.662 311.800,267.000 311.634,267.000 311.105 C 267.000 310.725,267.134 310.635,267.843 310.540 C 268.436 310.460,268.796 310.275,269.059 309.913 C 269.281 309.609,269.629 309.400,269.913 309.400 C 270.255 309.400,270.428 309.260,270.515 308.910 C 270.623 308.480,270.765 308.412,271.669 308.360 C 272.623 308.304,272.705 308.260,272.762 307.760 C 272.820 307.260,272.901 307.216,273.862 307.160 C 274.815 307.105,274.905 307.057,274.961 306.575 C 275.013 306.123,275.139 306.034,275.859 305.937 C 276.339 305.873,276.830 305.659,277.010 305.437 C 277.183 305.223,277.612 304.985,277.963 304.908 C 278.460 304.799,278.600 304.664,278.600 304.295 C 278.600 303.864,278.696 303.815,279.650 303.760 C 280.624 303.704,280.704 303.661,280.762 303.160 C 280.820 302.660,280.901 302.616,281.862 302.560 C 282.815 302.505,282.905 302.457,282.961 301.975 C 283.013 301.523,283.139 301.434,283.859 301.337 C 284.360 301.270,284.830 301.060,285.030 300.813 C 285.214 300.586,285.500 300.400,285.666 300.400 C 286.268 300.400,286.600 300.147,286.600 299.689 C 286.600 299.265,286.700 299.215,287.650 299.160 C 288.629 299.104,288.704 299.063,288.763 298.550 C 288.828 297.986,289.102 297.891,290.355 297.993 C 290.699 298.021,290.863 297.880,291.025 297.415 C 291.199 296.916,291.350 296.800,291.829 296.800 C 292.186 296.800,292.609 296.609,292.904 296.314 C 293.172 296.046,293.640 295.799,293.945 295.764 C 294.382 295.714,294.513 295.583,294.563 295.150 C 294.624 294.625,294.676 294.600,295.713 294.600 C 296.783 294.600,296.800 294.591,296.800 294.010 C 296.800 293.440,296.834 293.419,297.850 293.360 C 298.723 293.310,298.934 293.223,299.100 292.841 C 299.236 292.529,299.581 292.311,300.177 292.160 C 300.728 292.021,301.088 291.806,301.147 291.581 C 301.207 291.351,301.467 291.200,301.870 291.161 C 302.390 291.111,302.511 291.004,302.563 290.550 C 302.623 290.027,302.679 290.000,303.688 290.000 C 304.708 290.000,304.755 289.976,304.870 289.400 C 304.984 288.829,305.039 288.800,305.991 288.800 C 306.870 288.800,307.007 288.744,307.108 288.338 C 307.195 287.995,307.457 287.814,308.132 287.634 C 308.744 287.470,309.073 287.262,309.143 286.995 C 309.221 286.700,309.417 286.600,309.923 286.600 C 310.542 286.600,310.600 286.548,310.600 286.000 C 310.600 285.405,310.609 285.400,311.721 285.400 C 312.653 285.400,312.823 285.347,312.724 285.090 C 312.655 284.912,312.689 284.831,312.802 284.901 C 312.911 284.969,313.000 284.843,313.000 284.622 C 313.000 284.279,313.152 284.212,314.050 284.160 C 314.965 284.108,315.108 284.042,315.164 283.650 C 315.206 283.356,315.365 283.200,315.624 283.200 C 316.168 283.200,317.126 282.680,317.269 282.307 C 317.340 282.124,317.633 282.000,317.994 282.000 C 318.532 282.000,318.600 281.934,318.600 281.410 C 318.600 280.832,318.623 280.819,319.750 280.760 C 320.833 280.703,320.904 280.669,320.962 280.160 C 321.020 279.660,321.101 279.616,322.062 279.560 C 322.964 279.508,323.108 279.441,323.164 279.050 C 323.213 278.705,323.359 278.600,323.793 278.600 C 324.144 278.600,324.600 278.373,325.000 278.000 C 325.353 277.670,325.858 277.400,326.121 277.400 C 326.518 277.400,326.600 277.299,326.600 276.810 C 326.600 276.232,326.623 276.219,327.750 276.160 C 328.763 276.107,328.907 276.047,328.963 275.657 C 329.024 275.228,329.268 275.132,330.800 274.935 C 330.965 274.913,331.129 274.694,331.164 274.448 C 331.213 274.100,331.359 274.000,331.814 274.000 C 332.332 274.000,332.400 273.930,332.400 273.400 C 332.400 272.887,332.476 272.800,332.920 272.800 C 333.607 272.800,334.800 271.616,334.800 270.934 C 334.800 270.561,334.919 270.411,335.250 270.364 L 335.700 270.300 335.755 200.400 C 335.812 127.368,335.829 129.600,335.196 129.600 C 334.903 129.600,334.800 129.465,334.800 129.080 C 334.800 128.384,333.616 127.200,332.920 127.200 C 332.476 127.200,332.400 127.113,332.400 126.600 C 332.400 126.070,332.332 126.000,331.814 126.000 C 331.358 126.000,331.214 125.900,331.164 125.550 C 331.110 125.169,330.948 125.085,330.108 125.000 C 329.252 124.914,329.100 124.832,329.000 124.400 C 328.895 123.948,328.773 123.894,327.742 123.840 C 326.624 123.781,326.600 123.767,326.600 123.190 C 326.600 122.701,326.518 122.600,326.121 122.600 C 325.858 122.600,325.353 122.330,325.000 122.000 C 324.600 121.627,324.144 121.400,323.793 121.400 C 323.359 121.400,323.213 121.295,323.164 120.950 C 323.108 120.559,322.964 120.492,322.062 120.440 C 321.101 120.384,321.020 120.340,320.962 119.840 C 320.904 119.331,320.833 119.297,319.750 119.240 C 318.623 119.181,318.600 119.168,318.600 118.590 C 318.600 118.066,318.532 118.000,317.994 118.000 C 317.633 118.000,317.340 117.876,317.269 117.693 C 317.126 117.320,316.168 116.800,315.624 116.800 C 315.365 116.800,315.206 116.644,315.164 116.350 C 315.108 115.958,314.965 115.892,314.050 115.840 C 313.152 115.788,313.000 115.721,313.000 115.378 C 313.000 115.157,312.911 115.031,312.802 115.099 C 312.692 115.167,312.654 115.092,312.716 114.930 C 312.805 114.699,312.615 114.637,311.792 114.631 C 310.600 114.621,310.550 114.592,310.550 113.908 C 310.550 113.468,310.463 113.400,309.898 113.400 C 309.417 113.400,309.220 113.296,309.143 113.005 C 309.073 112.738,308.744 112.530,308.132 112.366 C 307.457 112.186,307.195 112.005,307.108 111.662 C 307.007 111.256,306.870 111.200,305.991 111.200 C 305.039 111.200,304.984 111.171,304.870 110.600 C 304.755 110.024,304.708 110.000,303.688 110.000 C 302.679 110.000,302.623 109.973,302.563 109.450 C 302.511 108.992,302.392 108.890,301.850 108.837 C 301.442 108.798,301.200 108.666,301.200 108.482 C 301.200 108.152,300.419 107.800,299.687 107.800 C 299.351 107.800,299.200 107.688,299.200 107.440 C 299.200 106.850,298.776 106.600,297.773 106.600 C 296.889 106.600,296.822 106.564,296.763 106.050 C 296.698 105.484,296.676 105.475,295.163 105.420 C 294.732 105.404,294.614 105.292,294.563 104.850 C 294.513 104.417,294.382 104.286,293.945 104.236 C 293.640 104.201,293.172 103.954,292.904 103.686 C 292.609 103.391,292.186 103.200,291.829 103.200 C 291.353 103.200,291.199 103.084,291.030 102.600 C 290.835 102.042,290.752 102.000,289.824 102.000 C 288.885 102.000,288.823 101.968,288.763 101.450 C 288.704 100.937,288.629 100.896,287.650 100.840 C 286.700 100.785,286.600 100.735,286.600 100.311 C 286.600 99.853,286.268 99.600,285.666 99.600 C 285.500 99.600,285.214 99.414,285.030 99.187 C 284.830 98.940,284.360 98.730,283.859 98.663 C 283.139 98.566,283.013 98.477,282.961 98.025 C 282.905 97.543,282.815 97.495,281.862 97.440 C 280.901 97.384,280.820 97.340,280.762 96.840 C 280.704 96.339,280.624 96.296,279.650 96.240 C 278.696 96.185,278.600 96.136,278.600 95.705 C 278.600 95.336,278.460 95.201,277.963 95.092 C 277.612 95.015,277.183 94.777,277.010 94.563 C 276.829 94.339,276.338 94.127,275.848 94.061 C 275.134 93.965,275.000 93.876,275.000 93.495 C 275.000 92.966,274.662 92.800,273.584 92.800 C 272.873 92.800,272.800 92.752,272.800 92.279 C 272.800 91.890,272.721 91.787,272.490 91.876 C 272.312 91.945,272.231 91.911,272.301 91.798 C 272.375 91.679,272.069 91.600,271.533 91.600 C 270.751 91.600,270.628 91.540,270.518 91.100 C 270.428 90.741,270.258 90.600,269.913 90.600 C 269.629 90.600,269.281 90.391,269.059 90.087 C 268.796 89.725,268.436 89.540,267.843 89.460 C 267.134 89.365,267.000 89.275,267.000 88.895 C 267.000 88.366,266.662 88.200,265.584 88.200 C 264.890 88.200,264.800 88.145,264.800 87.721 C 264.800 87.155,264.475 87.000,263.284 87.000 C 262.474 87.000,262.400 86.958,262.400 86.500 C 262.400 86.080,262.306 86.000,261.813 86.000 C 261.419 86.000,261.189 85.879,261.110 85.630 C 260.973 85.200,260.193 84.800,259.491 84.800 C 259.152 84.800,259.000 84.689,259.000 84.440 C 259.000 83.862,258.581 83.600,257.660 83.600 C 256.938 83.600,256.800 83.537,256.800 83.207 C 256.800 82.731,256.168 82.360,255.437 82.407 C 254.511 82.468,254.400 82.413,254.400 81.900 C 254.400 81.474,254.308 81.400,253.781 81.400 C 253.344 81.400,253.134 81.290,253.064 81.024 C 252.951 80.592,252.204 80.200,251.491 80.200 C 251.136 80.200,251.000 80.091,251.000 79.807 C 251.000 79.314,250.431 79.000,249.535 79.000 C 248.970 79.000,248.821 78.911,248.721 78.514 C 248.617 78.098,248.443 78.009,247.500 77.891 C 246.513 77.768,246.400 77.705,246.400 77.277 C 246.400 76.865,246.304 76.800,245.700 76.800 C 245.223 76.800,245.000 76.708,245.000 76.511 C 245.000 76.105,244.211 75.600,243.577 75.600 C 243.182 75.600,243.012 75.477,242.924 75.124 C 242.797 74.617,242.310 74.407,241.250 74.403 C 240.691 74.400,240.600 74.330,240.600 73.900 C 240.600 73.452,240.519 73.400,239.816 73.400 C 238.727 73.400,238.400 73.234,238.400 72.679 C 238.400 72.272,238.302 72.200,237.747 72.200 C 237.263 72.200,237.044 72.084,236.897 71.750 C 236.763 71.445,236.431 71.240,235.863 71.114 C 235.252 70.979,234.996 70.810,234.915 70.490 C 234.805 70.051,234.136 69.800,233.075 69.800 C 232.702 69.800,232.600 69.693,232.600 69.300 C 232.600 68.827,232.540 68.800,231.500 68.800 C 230.411 68.800,230.400 68.794,230.400 68.200 C 230.400 67.648,230.344 67.600,229.700 67.600 C 229.219 67.600,229.000 67.509,229.000 67.307 C 229.000 66.967,228.360 66.584,227.500 66.408 C 227.088 66.324,226.880 66.150,226.838 65.855 C 226.786 65.497,226.596 65.403,225.688 65.290 C 224.713 65.168,224.600 65.104,224.600 64.677 C 224.600 64.233,224.525 64.200,223.513 64.200 C 222.476 64.200,222.424 64.175,222.363 63.650 C 222.311 63.194,222.191 63.089,221.660 63.038 C 221.257 62.999,220.977 62.843,220.906 62.618 C 220.773 62.198,219.986 61.800,219.291 61.800 C 218.907 61.800,218.800 61.696,218.800 61.323 C 218.800 60.895,218.687 60.832,217.700 60.709 C 216.706 60.585,216.600 60.524,216.600 60.086 C 216.600 59.631,216.531 59.600,215.513 59.600 C 214.476 59.600,214.424 59.575,214.363 59.050 C 214.311 58.594,214.191 58.489,213.660 58.438 C 213.257 58.399,212.977 58.243,212.906 58.018 C 212.774 57.602,211.988 57.200,211.304 57.200 C 210.962 57.200,210.810 57.073,210.764 56.750 C 210.710 56.369,210.548 56.285,209.708 56.200 C 208.852 56.114,208.700 56.032,208.600 55.600 C 208.495 55.148,208.373 55.094,207.342 55.040 C 206.224 54.981,206.200 54.967,206.200 54.390 C 206.200 53.849,206.142 53.800,205.500 53.800 C 205.011 53.800,204.800 53.710,204.800 53.500 C 204.800 53.242,204.133 53.200,200.000 53.200 C 195.867 53.200,195.200 53.242,195.200 53.500 M214.000 113.070 C 215.595 113.257,217.620 113.504,218.500 113.619 C 219.380 113.735,220.817 113.918,221.694 114.027 C 222.571 114.136,223.381 114.299,223.494 114.390 C 223.607 114.481,224.195 114.620,224.800 114.700 C 225.405 114.780,225.990 114.915,226.100 115.000 C 226.210 115.085,226.772 115.219,227.350 115.296 C 227.927 115.374,228.450 115.519,228.512 115.619 C 228.573 115.718,228.783 115.800,228.978 115.800 C 229.554 115.800,234.184 117.255,234.700 117.598 C 234.810 117.671,235.350 117.893,235.900 118.091 C 245.595 121.584,255.602 130.309,260.003 139.108 C 260.496 140.093,260.946 140.945,261.003 141.000 C 261.104 141.098,261.868 142.912,262.646 144.900 C 262.861 145.450,263.129 146.305,263.242 146.800 C 263.354 147.295,263.516 147.790,263.600 147.900 C 263.685 148.010,263.821 148.502,263.902 148.992 C 263.983 149.483,264.126 150.023,264.220 150.192 C 264.313 150.362,264.477 151.040,264.584 151.700 C 264.691 152.360,264.867 153.350,264.976 153.900 C 265.457 156.343,265.639 157.921,265.830 161.294 C 266.040 165.003,265.906 171.299,265.579 173.089 C 265.478 173.645,265.297 174.820,265.178 175.700 C 265.059 176.580,264.892 177.390,264.806 177.500 C 264.720 177.610,264.586 178.150,264.507 178.700 C 264.427 179.250,264.293 179.790,264.209 179.900 C 264.124 180.010,263.993 180.501,263.919 180.990 C 263.844 181.480,263.706 181.975,263.612 182.090 C 263.518 182.206,263.348 182.615,263.233 183.000 C 262.591 185.156,260.188 190.354,259.288 191.533 C 259.020 191.885,258.800 192.218,258.800 192.273 C 258.800 192.731,254.221 198.749,252.600 200.421 C 252.105 200.932,251.463 201.608,251.173 201.925 C 247.628 205.790,239.951 211.200,238.011 211.200 C 237.518 211.200,237.614 211.802,238.290 212.955 C 238.680 213.622,239.000 214.265,239.000 214.384 C 239.000 214.503,239.070 214.600,239.156 214.600 C 239.242 214.600,239.419 214.847,239.549 215.150 C 239.679 215.453,240.242 216.510,240.800 217.500 C 241.358 218.490,241.922 219.525,242.053 219.800 C 242.184 220.075,242.341 220.345,242.400 220.400 C 242.459 220.455,242.617 220.725,242.751 221.000 C 242.884 221.275,243.307 222.040,243.691 222.700 C 244.075 223.360,244.638 224.395,244.942 225.000 C 245.246 225.605,245.548 226.145,245.614 226.200 C 245.731 226.298,246.415 227.524,247.901 230.300 C 248.313 231.070,248.716 231.790,248.796 231.900 C 248.941 232.099,249.680 233.446,251.101 236.100 C 251.513 236.870,251.916 237.590,251.996 237.700 C 252.141 237.899,252.880 239.246,254.301 241.900 C 254.713 242.670,255.117 243.390,255.197 243.500 C 255.326 243.676,256.322 245.492,257.357 247.437 C 257.546 247.791,257.813 248.205,257.950 248.355 C 258.088 248.506,258.200 248.714,258.200 248.818 C 258.200 248.923,258.410 249.344,258.668 249.754 C 259.090 250.428,259.627 251.400,261.456 254.800 C 261.781 255.405,262.114 255.990,262.196 256.100 C 262.278 256.210,262.732 257.020,263.205 257.900 C 263.677 258.780,264.330 259.995,264.656 260.600 C 264.981 261.205,265.314 261.790,265.396 261.900 C 265.478 262.010,265.932 262.820,266.405 263.700 C 266.878 264.580,267.567 265.840,267.937 266.500 C 268.306 267.160,268.764 268.015,268.954 268.400 C 269.144 268.785,269.345 269.145,269.400 269.200 C 269.511 269.311,269.586 269.445,270.766 271.634 C 271.220 272.478,271.845 273.603,272.155 274.134 C 273.414 276.293,273.414 276.294,273.355 280.040 L 273.300 283.500 257.911 283.500 L 242.522 283.500 241.362 281.300 C 240.724 280.090,239.955 278.605,239.654 278.000 C 239.352 277.395,239.059 276.855,239.003 276.800 C 238.892 276.691,238.608 276.166,237.329 273.700 C 236.873 272.820,236.455 272.055,236.400 272.000 C 236.345 271.945,235.952 271.225,235.526 270.400 C 235.100 269.575,234.525 268.495,234.248 268.000 C 233.972 267.505,233.227 266.110,232.593 264.900 C 230.810 261.493,230.708 261.307,230.577 261.200 C 230.509 261.145,230.385 260.875,230.300 260.600 C 230.215 260.325,230.084 260.055,230.007 260.000 C 229.931 259.945,229.733 259.630,229.567 259.300 C 229.401 258.970,228.968 258.160,228.605 257.500 C 228.242 256.840,227.498 255.445,226.951 254.400 C 226.405 253.355,225.753 252.140,225.503 251.700 C 224.993 250.803,223.554 248.113,222.294 245.700 C 221.834 244.820,221.113 243.470,220.691 242.700 C 218.807 239.258,218.365 238.433,217.849 237.400 C 217.547 236.795,217.232 236.270,217.150 236.233 C 217.068 236.197,217.000 236.077,217.000 235.967 C 217.000 235.857,216.695 235.247,216.322 234.610 C 215.949 233.974,215.577 233.239,215.495 232.977 C 215.413 232.715,215.291 232.455,215.223 232.400 C 215.085 232.288,214.786 231.746,213.348 229.000 C 211.830 226.104,211.509 225.510,211.400 225.401 C 211.345 225.345,211.022 224.760,210.682 224.100 C 209.019 220.868,208.291 219.491,208.196 219.400 C 208.139 219.345,207.983 219.053,207.850 218.750 L 207.609 218.200 192.604 218.200 L 177.600 218.200 177.600 250.900 L 177.600 283.600 162.000 283.600 L 146.400 283.600 146.400 198.233 C 146.400 151.282,146.467 112.800,146.548 112.719 C 146.891 112.375,210.915 112.709,214.000 113.070 M177.600 165.600 L 177.600 191.200 191.450 191.187 C 209.352 191.171,214.957 190.795,218.100 189.402 C 218.320 189.305,218.725 189.165,219.000 189.091 C 219.807 188.876,223.800 186.937,223.800 186.761 C 223.800 186.673,223.885 186.600,223.990 186.600 C 224.367 186.600,225.927 185.410,227.200 184.150 C 228.464 182.899,230.200 181.013,230.200 180.889 C 230.200 180.856,230.577 180.260,231.039 179.566 C 231.983 178.143,232.994 176.227,232.997 175.850 C 232.999 175.713,233.090 175.600,233.200 175.600 C 233.310 175.600,233.404 175.442,233.409 175.250 C 233.414 175.058,233.549 174.540,233.709 174.100 C 235.142 170.168,235.206 159.631,233.812 157.175 C 233.710 156.996,233.565 156.515,233.488 156.106 C 233.411 155.697,233.146 154.983,232.899 154.518 C 232.652 154.053,232.386 153.471,232.307 153.223 C 231.882 151.882,229.453 148.398,227.900 146.900 C 227.304 146.325,224.864 144.400,224.732 144.400 C 224.670 144.400,224.220 144.130,223.731 143.800 C 223.242 143.470,222.765 143.200,222.671 143.200 C 222.577 143.201,221.870 142.938,221.100 142.616 C 218.278 141.438,216.400 140.990,212.600 140.590 C 211.555 140.480,210.316 140.302,209.847 140.195 C 209.333 140.077,202.765 140.000,193.297 140.000 L 177.600 140.000 177.600 165.600 " stroke="none" fill="#fcc424" fill-rule="evenodd"></path><path id="path2" d="M146.493 113.050 C 146.440 113.188,146.421 151.595,146.449 198.400 L 146.500 283.500 161.900 283.502 L 177.300 283.504 161.950 283.451 L 146.599 283.398 146.650 198.099 C 146.677 151.184,146.675 112.800,146.644 112.800 C 146.613 112.800,146.545 112.913,146.493 113.050 M207.150 112.947 C 207.728 112.988,208.673 112.988,209.250 112.947 C 209.828 112.907,209.355 112.874,208.200 112.874 C 207.045 112.874,206.572 112.907,207.150 112.947 M216.450 113.538 C 216.643 113.588,216.957 113.588,217.150 113.538 C 217.343 113.488,217.185 113.446,216.800 113.446 C 216.415 113.446,216.257 113.488,216.450 113.538 M252.192 128.850 C 253.020 129.733,253.200 129.892,253.200 129.742 C 253.200 129.710,252.773 129.282,252.250 128.792 L 251.300 127.900 252.192 128.850 M184.635 139.950 C 188.670 139.980,195.330 139.980,199.435 139.950 C 203.541 139.920,200.240 139.895,192.100 139.895 C 183.960 139.895,180.601 139.920,184.635 139.950 M265.660 160.800 C 265.660 161.405,265.697 161.653,265.743 161.350 C 265.789 161.048,265.789 160.553,265.743 160.250 C 265.697 159.947,265.660 160.195,265.660 160.800 M234.854 162.600 C 234.854 163.095,234.893 163.298,234.941 163.050 C 234.989 162.803,234.989 162.398,234.941 162.150 C 234.893 161.903,234.854 162.105,234.854 162.600 M235.050 164.900 C 235.053 165.340,235.094 165.496,235.141 165.248 C 235.189 164.999,235.187 164.639,235.137 164.448 C 235.087 164.256,235.048 164.460,235.050 164.900 M265.866 165.900 C 265.867 166.670,265.903 166.960,265.946 166.546 C 265.989 166.131,265.989 165.501,265.944 165.146 C 265.900 164.790,265.865 165.130,265.866 165.900 M235.046 166.800 C 235.046 167.185,235.088 167.343,235.138 167.150 C 235.188 166.958,235.188 166.643,235.138 166.450 C 235.088 166.258,235.046 166.415,235.046 166.800 M234.850 168.900 C 234.853 169.340,234.894 169.496,234.941 169.248 C 234.989 168.999,234.987 168.639,234.937 168.448 C 234.887 168.256,234.848 168.460,234.850 168.900 M265.657 170.900 C 265.659 171.450,265.698 171.651,265.744 171.347 C 265.789 171.043,265.788 170.593,265.741 170.347 C 265.693 170.101,265.656 170.350,265.657 170.900 M229.487 181.850 L 228.900 182.500 229.550 181.913 C 230.156 181.365,230.292 181.200,230.137 181.200 C 230.103 181.200,229.810 181.493,229.487 181.850 M227.593 183.950 L 226.500 185.100 227.650 184.007 C 228.718 182.991,228.892 182.800,228.743 182.800 C 228.712 182.800,228.194 183.317,227.593 183.950 M208.453 191.144 C 208.757 191.189,209.207 191.188,209.453 191.141 C 209.699 191.093,209.450 191.056,208.900 191.057 C 208.350 191.059,208.149 191.098,208.453 191.144 M205.750 191.341 C 205.998 191.389,206.403 191.389,206.650 191.341 C 206.898 191.293,206.695 191.254,206.200 191.254 C 205.705 191.254,205.503 191.293,205.750 191.341 M253.087 199.650 L 252.500 200.300 253.150 199.713 C 253.756 199.165,253.892 199.000,253.737 199.000 C 253.703 199.000,253.410 199.293,253.087 199.650 M248.000 204.700 C 247.514 205.195,247.162 205.600,247.217 205.600 C 247.272 205.600,247.714 205.195,248.200 204.700 C 248.686 204.205,249.038 203.800,248.983 203.800 C 248.928 203.800,248.486 204.205,248.000 204.700 M273.045 279.750 L 273.000 283.400 257.940 283.400 C 246.175 283.400,242.819 283.345,242.600 283.150 C 242.361 282.937,242.359 282.952,242.584 283.250 C 242.933 283.711,272.935 283.803,273.111 283.343 C 273.165 283.202,273.183 281.514,273.150 279.593 L 273.090 276.100 273.045 279.750 " stroke="none" fill="#fcd66f" fill-rule="evenodd"></path><path id="path3" d="M146.733 112.933 C 146.660 113.007,146.600 151.392,146.600 198.233 L 146.600 283.400 162.000 283.400 L 177.400 283.400 177.400 250.798 L 177.400 218.195 192.690 218.248 C 201.100 218.276,207.912 218.232,207.829 218.149 C 207.746 218.066,200.843 218.021,192.489 218.049 L 177.300 218.100 177.249 250.650 L 177.199 283.200 161.999 283.200 L 146.800 283.200 146.800 198.101 L 146.800 113.001 176.550 112.950 L 206.300 112.899 176.583 112.849 C 160.239 112.822,146.807 112.860,146.733 112.933 M209.350 113.145 C 209.707 113.189,210.293 113.189,210.650 113.145 C 211.007 113.100,210.715 113.064,210.000 113.064 C 209.285 113.064,208.993 113.100,209.350 113.145 M213.400 113.403 C 214.310 113.572,216.337 113.662,216.183 113.527 C 216.138 113.486,215.290 113.404,214.300 113.344 C 213.031 113.268,212.766 113.285,213.400 113.403 M219.000 113.993 C 219.496 114.159,220.944 114.267,220.783 114.127 C 220.738 114.087,220.205 114.003,219.600 113.940 C 218.890 113.867,218.677 113.886,219.000 113.993 M223.000 114.591 C 223.165 114.703,223.472 114.795,223.683 114.797 C 224.195 114.801,224.035 114.687,223.300 114.522 C 222.862 114.424,222.781 114.443,223.000 114.591 M226.200 115.400 C 226.475 115.488,226.880 115.560,227.100 115.560 C 227.417 115.560,227.396 115.527,227.000 115.400 C 226.725 115.312,226.320 115.240,226.100 115.240 C 225.783 115.240,225.804 115.273,226.200 115.400 M228.700 116.000 C 228.920 116.095,229.235 116.172,229.400 116.172 C 229.589 116.172,229.552 116.108,229.300 116.000 C 229.080 115.905,228.765 115.828,228.600 115.828 C 228.411 115.828,228.448 115.892,228.700 116.000 M234.200 117.715 C 234.200 117.850,235.239 118.228,235.338 118.129 C 235.383 118.083,235.146 117.951,234.810 117.834 C 234.475 117.717,234.200 117.663,234.200 117.715 M236.000 118.500 C 236.275 118.657,236.590 118.786,236.700 118.786 C 236.810 118.786,236.675 118.657,236.400 118.500 C 236.125 118.343,235.810 118.214,235.700 118.214 C 235.590 118.214,235.725 118.343,236.000 118.500 M241.200 120.890 C 241.200 120.945,241.470 121.129,241.800 121.300 C 242.130 121.471,242.400 121.565,242.400 121.510 C 242.400 121.455,242.130 121.271,241.800 121.100 C 241.470 120.929,241.200 120.835,241.200 120.890 M244.500 122.904 C 244.720 123.083,245.080 123.318,245.300 123.426 L 245.700 123.622 245.300 123.296 C 245.080 123.117,244.720 122.882,244.500 122.774 L 244.100 122.578 244.500 122.904 M250.700 127.600 C 251.242 128.150,251.730 128.600,251.785 128.600 C 251.840 128.600,251.442 128.150,250.900 127.600 C 250.358 127.050,249.870 126.600,249.815 126.600 C 249.760 126.600,250.158 127.050,250.700 127.600 M255.094 132.250 C 255.742 132.993,256.308 133.600,256.354 133.600 C 256.487 133.600,254.892 131.741,254.381 131.300 C 254.126 131.080,254.447 131.508,255.094 132.250 M260.341 140.494 C 260.636 141.096,260.911 141.555,260.952 141.514 C 261.042 141.424,260.033 139.400,259.899 139.400 C 259.847 139.400,260.046 139.892,260.341 140.494 M184.665 139.750 C 188.715 139.780,195.285 139.780,199.265 139.750 C 203.244 139.720,199.930 139.695,191.900 139.695 C 183.870 139.695,180.614 139.720,184.665 139.750 M207.650 139.947 C 208.173 139.988,209.028 139.988,209.550 139.947 C 210.072 139.906,209.645 139.872,208.600 139.872 C 207.555 139.872,207.128 139.906,207.650 139.947 M177.297 165.600 C 177.297 179.735,177.321 185.518,177.350 178.450 C 177.379 171.382,177.379 159.817,177.350 152.750 C 177.321 145.682,177.297 151.465,177.297 165.600 M213.817 140.472 C 213.863 140.512,214.305 140.598,214.800 140.663 C 215.401 140.743,215.567 140.723,215.300 140.605 C 214.918 140.436,213.643 140.322,213.817 140.472 M217.500 141.200 C 217.720 141.295,218.035 141.372,218.200 141.372 C 218.389 141.372,218.352 141.308,218.100 141.200 C 217.880 141.105,217.565 141.028,217.400 141.028 C 217.211 141.028,217.248 141.092,217.500 141.200 M219.500 141.800 C 219.720 141.895,220.035 141.972,220.200 141.972 C 220.389 141.972,220.352 141.908,220.100 141.800 C 219.880 141.705,219.565 141.628,219.400 141.628 C 219.211 141.628,219.248 141.692,219.500 141.800 M261.014 141.900 C 261.014 142.010,261.143 142.325,261.300 142.600 C 261.457 142.875,261.586 143.010,261.586 142.900 C 261.586 142.790,261.457 142.475,261.300 142.200 C 261.143 141.925,261.014 141.790,261.014 141.900 M221.400 142.500 C 221.675 142.657,221.990 142.786,222.100 142.786 C 222.210 142.786,222.075 142.657,221.800 142.500 C 221.525 142.343,221.210 142.214,221.100 142.214 C 220.990 142.214,221.125 142.343,221.400 142.500 M222.417 142.875 C 222.622 143.059,223.800 143.600,223.800 143.510 C 223.800 143.395,222.691 142.800,222.477 142.800 C 222.398 142.800,222.371 142.834,222.417 142.875 M261.614 143.300 C 261.614 143.410,261.743 143.725,261.900 144.000 C 262.057 144.275,262.186 144.410,262.186 144.300 C 262.186 144.190,262.057 143.875,261.900 143.600 C 261.743 143.325,261.614 143.190,261.614 143.300 M262.315 145.000 C 262.388 145.275,262.532 145.635,262.634 145.800 C 262.763 146.008,262.778 145.947,262.685 145.600 C 262.612 145.325,262.468 144.965,262.366 144.800 C 262.237 144.592,262.222 144.653,262.315 145.000 M226.600 145.463 C 226.600 145.497,226.893 145.790,227.250 146.113 L 227.900 146.700 227.313 146.050 C 226.765 145.444,226.600 145.308,226.600 145.463 M228.800 147.663 C 228.800 147.697,229.093 147.990,229.450 148.313 L 230.100 148.900 229.513 148.250 C 228.965 147.644,228.800 147.508,228.800 147.663 M263.628 149.200 C 263.628 149.365,263.705 149.680,263.800 149.900 C 263.908 150.152,263.972 150.189,263.972 150.000 C 263.972 149.835,263.895 149.520,263.800 149.300 C 263.692 149.048,263.628 149.011,263.628 149.200 M230.905 150.313 C 231.091 150.650,231.421 151.145,231.638 151.413 L 232.033 151.900 231.695 151.287 C 231.509 150.950,231.179 150.455,230.962 150.187 L 230.567 149.700 230.905 150.313 M264.331 152.300 C 264.398 152.740,264.486 153.138,264.527 153.183 C 264.678 153.355,264.565 152.284,264.391 151.900 C 264.264 151.621,264.246 151.742,264.331 152.300 M233.231 154.700 C 233.231 154.810,233.352 155.215,233.500 155.600 C 233.648 155.985,233.772 156.165,233.776 156.000 C 233.779 155.835,233.658 155.430,233.507 155.100 C 233.356 154.770,233.232 154.590,233.231 154.700 M265.024 156.217 C 265.037 156.703,265.118 157.370,265.205 157.700 C 265.301 158.064,265.320 157.749,265.254 156.900 C 265.131 155.310,264.988 154.888,265.024 156.217 M234.028 157.200 C 234.028 157.365,234.105 157.680,234.200 157.900 C 234.308 158.152,234.372 158.189,234.372 158.000 C 234.372 157.835,234.295 157.520,234.200 157.300 C 234.092 157.048,234.028 157.011,234.028 157.200 M234.737 160.800 C 234.802 161.295,234.888 161.738,234.928 161.783 C 235.078 161.957,234.964 160.682,234.795 160.300 C 234.677 160.033,234.657 160.199,234.737 160.800 M265.685 165.900 C 265.685 168.210,265.714 169.128,265.749 167.939 C 265.785 166.751,265.785 164.861,265.749 163.739 C 265.713 162.618,265.684 163.590,265.685 165.900 M235.060 163.200 C 235.060 163.805,235.097 164.053,235.143 163.750 C 235.189 163.447,235.189 162.953,235.143 162.650 C 235.097 162.347,235.060 162.595,235.060 163.200 M235.057 168.300 C 235.059 168.850,235.098 169.051,235.144 168.747 C 235.189 168.443,235.188 167.993,235.141 167.747 C 235.093 167.501,235.056 167.750,235.057 168.300 M234.720 170.420 C 234.647 170.878,234.626 171.292,234.674 171.340 C 234.721 171.388,234.823 171.055,234.900 170.600 C 234.977 170.145,234.998 169.731,234.946 169.680 C 234.895 169.629,234.793 169.962,234.720 170.420 M265.128 173.442 C 265.061 173.694,265.015 174.170,265.026 174.500 C 265.041 174.914,265.099 174.792,265.213 174.106 C 265.388 173.061,265.337 172.663,265.128 173.442 M232.906 176.550 C 232.471 177.496,231.771 178.816,231.351 179.485 C 230.858 180.270,230.770 180.488,231.103 180.100 C 231.656 179.455,233.929 175.063,233.785 174.918 C 233.737 174.870,233.341 175.604,232.906 176.550 M264.400 177.600 C 264.276 178.062,264.213 178.480,264.261 178.527 C 264.309 178.575,264.445 178.232,264.564 177.764 C 264.682 177.296,264.745 176.878,264.703 176.836 C 264.661 176.794,264.524 177.138,264.400 177.600 M263.725 180.225 C 263.558 181.059,263.720 181.220,263.900 180.400 C 263.976 180.054,263.996 179.730,263.945 179.679 C 263.894 179.628,263.795 179.874,263.725 180.225 M229.389 182.150 L 228.700 182.900 229.450 182.211 C 230.148 181.569,230.292 181.400,230.139 181.400 C 230.106 181.400,229.768 181.738,229.389 182.150 M227.600 184.100 C 227.114 184.595,226.762 185.000,226.817 185.000 C 226.872 185.000,227.314 184.595,227.800 184.100 C 228.286 183.605,228.638 183.200,228.583 183.200 C 228.528 183.200,228.086 183.605,227.600 184.100 M225.885 185.651 L 225.300 186.299 225.900 185.799 C 226.230 185.525,226.538 185.278,226.583 185.250 C 226.629 185.222,226.623 185.156,226.569 185.102 C 226.515 185.048,226.207 185.295,225.885 185.651 M261.822 185.822 C 261.699 186.176,261.633 186.500,261.676 186.543 C 261.719 186.585,261.855 186.331,261.978 185.978 C 262.101 185.624,262.167 185.300,262.124 185.257 C 262.081 185.215,261.945 185.469,261.822 185.822 M222.900 187.511 C 222.240 187.887,221.790 188.195,221.900 188.196 C 222.141 188.196,224.200 187.033,224.200 186.896 C 224.200 186.765,224.244 186.744,222.900 187.511 M260.790 188.020 C 260.451 188.691,260.207 189.273,260.247 189.314 C 260.287 189.354,260.608 188.805,260.958 188.094 C 261.309 187.382,261.553 186.800,261.501 186.800 C 261.449 186.800,261.129 187.349,260.790 188.020 M259.529 190.505 C 259.250 191.002,259.109 191.356,259.214 191.291 C 259.424 191.161,260.262 189.600,260.121 189.600 C 260.073 189.600,259.807 190.007,259.529 190.505 M214.800 190.400 C 214.404 190.527,214.383 190.560,214.700 190.560 C 214.920 190.560,215.325 190.488,215.600 190.400 C 215.996 190.273,216.017 190.240,215.700 190.240 C 215.480 190.240,215.075 190.312,214.800 190.400 M210.700 191.000 L 209.700 191.137 210.600 191.145 C 211.095 191.149,211.770 191.084,212.100 191.000 C 212.888 190.799,212.163 190.799,210.700 191.000 M207.550 191.345 C 207.907 191.389,208.493 191.389,208.850 191.345 C 209.207 191.300,208.915 191.264,208.200 191.264 C 207.485 191.264,207.193 191.300,207.550 191.345 M257.846 193.150 C 257.329 193.898,257.160 194.200,257.262 194.200 C 257.308 194.200,257.585 193.840,257.876 193.400 C 258.468 192.506,258.442 192.290,257.846 193.150 M256.101 195.650 C 255.571 196.338,255.317 196.742,255.536 196.549 C 255.950 196.184,257.285 194.400,257.145 194.400 C 257.100 194.400,256.631 194.963,256.101 195.650 M254.487 197.734 C 254.179 198.138,254.030 198.405,254.154 198.328 C 254.410 198.170,255.276 197.000,255.137 197.000 C 255.088 197.000,254.795 197.330,254.487 197.734 M251.410 201.250 C 250.046 202.708,249.447 203.405,250.081 202.800 C 251.260 201.673,254.103 198.600,253.966 198.600 C 253.924 198.600,252.774 199.793,251.410 201.250 M247.800 204.700 C 247.314 205.195,246.962 205.600,247.017 205.600 C 247.072 205.600,247.514 205.195,248.000 204.700 C 248.486 204.205,248.838 203.800,248.783 203.800 C 248.728 203.800,248.286 204.205,247.800 204.700 M240.400 209.800 C 240.015 210.011,239.772 210.187,239.860 210.192 C 240.072 210.203,241.200 209.616,241.200 209.495 C 241.200 209.364,241.188 209.368,240.400 209.800 M237.650 211.044 C 237.403 211.163,237.200 211.400,237.200 211.569 C 237.200 211.843,237.227 211.842,237.450 211.563 C 237.588 211.391,237.880 211.151,238.100 211.031 C 238.616 210.748,238.240 210.759,237.650 211.044 M238.700 214.400 C 238.871 214.730,239.055 215.000,239.110 215.000 C 239.165 215.000,239.071 214.730,238.900 214.400 C 238.729 214.070,238.545 213.800,238.490 213.800 C 238.435 213.800,238.529 214.070,238.700 214.400 M241.900 220.200 C 242.071 220.530,242.255 220.800,242.310 220.800 C 242.365 220.800,242.271 220.530,242.100 220.200 C 241.929 219.870,241.745 219.600,241.690 219.600 C 241.635 219.600,241.729 219.870,241.900 220.200 M211.700 225.600 C 211.871 225.930,212.055 226.200,212.110 226.200 C 212.165 226.200,212.071 225.930,211.900 225.600 C 211.729 225.270,211.545 225.000,211.490 225.000 C 211.435 225.000,211.529 225.270,211.700 225.600 M245.100 226.000 C 245.271 226.330,245.455 226.600,245.510 226.600 C 245.565 226.600,245.471 226.330,245.300 226.000 C 245.129 225.670,244.945 225.400,244.890 225.400 C 244.835 225.400,244.929 225.670,245.100 226.000 M216.100 233.800 C 216.271 234.130,216.455 234.400,216.510 234.400 C 216.565 234.400,216.471 234.130,216.300 233.800 C 216.129 233.470,215.945 233.200,215.890 233.200 C 215.835 233.200,215.929 233.470,216.100 233.800 M253.200 240.600 C 253.424 241.040,253.653 241.400,253.708 241.400 C 253.763 241.400,253.624 241.040,253.400 240.600 C 253.176 240.160,252.947 239.800,252.892 239.800 C 252.837 239.800,252.976 240.160,253.200 240.600 M255.300 244.400 C 255.471 244.730,255.655 245.000,255.710 245.000 C 255.765 245.000,255.671 244.730,255.500 244.400 C 255.329 244.070,255.145 243.800,255.090 243.800 C 255.035 243.800,255.129 244.070,255.300 244.400 M257.803 248.825 C 257.799 249.002,258.816 250.800,258.921 250.800 C 258.969 250.800,258.830 250.463,258.612 250.050 C 258.139 249.156,257.807 248.653,257.803 248.825 M225.100 250.600 C 225.271 250.930,225.455 251.200,225.510 251.200 C 225.565 251.200,225.471 250.930,225.300 250.600 C 225.129 250.270,224.945 250.000,224.890 250.000 C 224.835 250.000,224.929 250.270,225.100 250.600 M261.600 255.800 C 261.824 256.240,262.053 256.600,262.108 256.600 C 262.163 256.600,262.024 256.240,261.800 255.800 C 261.576 255.360,261.347 255.000,261.292 255.000 C 261.237 255.000,261.376 255.360,261.600 255.800 M262.500 257.400 C 262.671 257.730,262.855 258.000,262.910 258.000 C 262.965 258.000,262.871 257.730,262.700 257.400 C 262.529 257.070,262.345 256.800,262.290 256.800 C 262.235 256.800,262.329 257.070,262.500 257.400 M264.700 261.400 C 264.979 261.950,265.252 262.400,265.307 262.400 C 265.362 262.400,265.179 261.950,264.900 261.400 C 264.621 260.850,264.348 260.400,264.293 260.400 C 264.238 260.400,264.421 260.850,264.700 261.400 M230.900 261.400 C 231.071 261.730,231.255 262.000,231.310 262.000 C 231.365 262.000,231.271 261.730,231.100 261.400 C 230.929 261.070,230.745 260.800,230.690 260.800 C 230.635 260.800,230.729 261.070,230.900 261.400 M265.700 263.200 C 265.871 263.530,266.055 263.800,266.110 263.800 C 266.165 263.800,266.071 263.530,265.900 263.200 C 265.729 262.870,265.545 262.600,265.490 262.600 C 265.435 262.600,265.529 262.870,265.700 263.200 M266.600 264.800 C 266.824 265.240,267.053 265.600,267.108 265.600 C 267.163 265.600,267.024 265.240,266.800 264.800 C 266.576 264.360,266.347 264.000,266.292 264.000 C 266.237 264.000,266.376 264.360,266.600 264.800 M234.100 267.400 C 234.271 267.730,234.455 268.000,234.510 268.000 C 234.565 268.000,234.471 267.730,234.300 267.400 C 234.129 267.070,233.945 266.800,233.890 266.800 C 233.835 266.800,233.929 267.070,234.100 267.400 M271.800 274.200 C 272.024 274.640,272.253 275.000,272.308 275.000 C 272.363 275.000,272.224 274.640,272.000 274.200 C 271.776 273.760,271.547 273.400,271.492 273.400 C 271.437 273.400,271.576 273.760,271.800 274.200 M272.758 279.419 L 272.817 283.200 257.833 283.200 C 243.790 283.200,242.832 283.178,242.574 282.849 C 242.326 282.532,242.321 282.536,242.524 282.899 C 242.745 283.294,242.976 283.301,257.874 283.351 L 273.000 283.403 273.000 279.613 C 273.000 277.529,272.933 275.782,272.850 275.731 C 272.768 275.679,272.726 277.339,272.758 279.419 M239.900 278.200 C 240.071 278.530,240.255 278.800,240.310 278.800 C 240.365 278.800,240.271 278.530,240.100 278.200 C 239.929 277.870,239.745 277.600,239.690 277.600 C 239.635 277.600,239.729 277.870,239.900 278.200 " stroke="none" fill="#fce6a7" fill-rule="evenodd"></path><path id="path4" d="M146.531 112.750 C 146.447 112.886,166.849 112.885,195.200 112.748 C 201.085 112.720,192.563 112.675,176.262 112.648 C 159.961 112.622,146.582 112.668,146.531 112.750 M211.200 113.008 C 211.805 113.092,212.615 113.157,213.000 113.153 C 213.561 113.148,213.501 113.116,212.700 112.991 C 212.150 112.905,211.340 112.840,210.900 112.846 C 210.203 112.855,210.242 112.876,211.200 113.008 M218.552 113.741 C 218.801 113.789,219.161 113.787,219.352 113.737 C 219.544 113.687,219.340 113.648,218.900 113.650 C 218.460 113.653,218.304 113.694,218.552 113.741 M249.600 126.263 C 249.600 126.297,249.893 126.590,250.250 126.913 L 250.900 127.500 250.313 126.850 C 249.765 126.244,249.600 126.108,249.600 126.263 M252.613 129.115 C 252.991 129.564,253.341 129.898,253.390 129.859 C 253.440 129.819,253.130 129.452,252.703 129.043 L 251.925 128.300 252.613 129.115 M177.497 165.600 C 177.497 179.735,177.521 185.518,177.550 178.450 C 177.579 171.382,177.579 159.817,177.550 152.750 C 177.521 145.682,177.497 151.465,177.497 165.600 M209.700 140.205 C 210.085 140.366,211.954 140.476,211.783 140.328 C 211.738 140.288,211.160 140.206,210.500 140.147 C 209.775 140.081,209.458 140.104,209.700 140.205 M215.050 140.938 C 215.243 140.988,215.558 140.988,215.750 140.938 C 215.943 140.888,215.785 140.846,215.400 140.846 C 215.015 140.846,214.857 140.888,215.050 140.938 M265.454 157.800 C 265.454 158.295,265.493 158.498,265.541 158.250 C 265.589 158.003,265.589 157.597,265.541 157.350 C 265.493 157.103,265.454 157.305,265.454 157.800 M265.854 163.800 C 265.854 164.295,265.893 164.498,265.941 164.250 C 265.989 164.003,265.989 163.597,265.941 163.350 C 265.893 163.103,265.854 163.305,265.854 163.800 M234.857 164.300 C 234.859 164.850,234.898 165.051,234.944 164.747 C 234.989 164.443,234.988 163.993,234.941 163.747 C 234.893 163.501,234.856 163.750,234.857 164.300 M234.854 167.400 C 234.854 167.895,234.893 168.097,234.941 167.850 C 234.989 167.603,234.989 167.197,234.941 166.950 C 234.893 166.703,234.854 166.905,234.854 167.400 M265.854 168.000 C 265.854 168.495,265.893 168.697,265.941 168.450 C 265.989 168.203,265.989 167.798,265.941 167.550 C 265.893 167.303,265.854 167.505,265.854 168.000 M265.446 173.200 C 265.446 173.585,265.488 173.743,265.538 173.550 C 265.588 173.358,265.588 173.043,265.538 172.850 C 265.488 172.658,265.446 172.815,265.446 173.200 M211.750 190.741 C 211.998 190.789,212.403 190.789,212.650 190.741 C 212.898 190.693,212.695 190.654,212.200 190.654 C 211.705 190.654,211.503 190.693,211.750 190.741 M206.653 191.144 C 206.957 191.189,207.407 191.188,207.653 191.141 C 207.899 191.093,207.650 191.056,207.100 191.057 C 206.550 191.059,206.349 191.098,206.653 191.144 M184.650 191.350 C 188.472 191.380,194.727 191.380,198.550 191.350 C 202.373 191.320,199.245 191.295,191.600 191.295 C 183.955 191.295,180.827 191.320,184.650 191.350 M256.887 194.934 C 256.579 195.338,256.430 195.605,256.554 195.528 C 256.810 195.370,257.676 194.200,257.537 194.200 C 257.488 194.200,257.195 194.530,256.887 194.934 M177.498 250.900 C 177.498 268.940,177.521 276.290,177.550 267.234 C 177.579 258.178,177.579 243.418,177.550 234.434 C 177.521 225.450,177.498 232.860,177.498 250.900 M273.200 279.940 C 273.145 281.943,273.170 283.511,273.255 283.426 C 273.340 283.340,273.385 281.702,273.354 279.785 L 273.299 276.300 273.200 279.940 " stroke="none" fill="#fccc4b" fill-rule="evenodd"></path></g></svg>